<svg xmlns="http://www.w3.org/2000/svg" fill="none" viewBox="0 0 22 22" width="22" height="22">
   <path fill="#000000" d="M11 2.244c2.836 0 3.175 0 4.316.062 1.048.062 1.603.216 1.973.37.493.185.863.432 1.233.802.37.37.617.74.802 1.233.154.37.308.955.37 1.973.062 1.11.062 1.449.062 4.316s0 3.175-.062 4.316c-.062 1.048-.216 1.603-.37 1.973a3.285 3.285 0 01-.802 1.233c-.37.37-.74.616-1.233.801-.37.154-.956.309-1.973.37-1.11.062-1.449.062-4.316.062s-3.175 0-4.316-.062c-1.048-.061-1.603-.216-1.973-.37a3.285 3.285 0 01-1.233-.801c-.37-.37-.617-.74-.802-1.233-.154-.37-.308-.956-.37-1.973-.061-1.11-.061-1.45-.061-4.316 0-2.867 0-3.176.062-4.316.061-1.048.215-1.603.37-1.973.184-.494.431-.864.801-1.233.37-.37.74-.617 1.233-.802.37-.154.956-.308 1.973-.37 1.14-.03 1.48-.062 4.316-.062zm0-1.911c-2.898 0-3.268 0-4.408.062C5.45.456 4.68.64 4.002.888a5.239 5.239 0 00-1.88 1.233 5.517 5.517 0 00-1.234 1.88c-.277.679-.431 1.45-.493 2.59S.333 8.101.333 11c0 2.898 0 3.268.062 4.408.062 1.14.247 1.912.493 2.59.278.709.648 1.294 1.234 1.88a5.516 5.516 0 001.88 1.233c.678.278 1.449.432 2.59.494 1.14.061 1.51.061 4.408.061 2.898 0 3.268 0 4.409-.061 1.14-.062 1.911-.247 2.59-.494a5.239 5.239 0 001.88-1.233 5.516 5.516 0 001.233-1.88c.277-.678.432-1.45.493-2.59.062-1.14.062-1.51.062-4.408 0-2.898 0-3.268-.062-4.409-.061-1.14-.247-1.911-.493-2.59a5.238 5.238 0 00-1.233-1.88 5.517 5.517 0 00-1.88-1.233c-.679-.278-1.45-.432-2.59-.493C14.268.333 13.898.333 11 .333zm0 5.18A5.5 5.5 0 005.513 11 5.5 5.5 0 0011 16.487 5.5 5.5 0 0016.488 11 5.5 5.5 0 0011 5.512zm0 9.032A3.546 3.546 0 017.455 11c0-1.943 1.603-3.546 3.545-3.546a3.546 3.546 0 010 7.091zm5.703-10.513c-.709 0-1.294.586-1.294 1.295 0 .71.585 1.295 1.294 1.295.71 0 1.295-.586 1.295-1.295s-.585-1.295-1.295-1.295z"></path>
</svg>