<svg xmlns="http://www.w3.org/2000/svg" fill="none" viewBox="0 0 23 20" width="23" height="20">
  <path fill="#000000" d="M7.454 19.334c8.553 0 13.233-7.184 13.233-13.403 0-.202 0-.404-.009-.607A9.545 9.545 0 0023 2.881a9.335 9.335 0 01-2.676.744 4.729 4.729 0 002.05-2.609 9.18 9.18 0 01-2.957 1.14A4.615 4.615 0 0016.025.666c-2.567 0-4.653 2.113-4.653 4.713 0 .367.045.725.118 1.074-3.864-.193-7.293-2.076-9.587-4.923a4.758 4.758 0 00-.626 2.37 4.74 4.74 0 002.068 3.922 4.66 4.66 0 01-2.104-.588V7.3c0 2.278 1.605 4.189 3.727 4.62-.39.11-.798.166-1.224.166-.3 0-.59-.028-.87-.083.589 1.874 2.312 3.233 4.344 3.27a9.254 9.254 0 01-5.778 2.021c-.372 0-.744-.018-1.107-.064a13.109 13.109 0 007.12 2.104z"></path>
</svg>